# xmcd CD database file
#
# Track frame offsets:
#	150
#	19297
#	39657
#	57571
#	77733
#	96864
#	111777
#	126617
#	142937
#	160192
#	172392
#	183686
#	197007
#
# Disc length: 2940 seconds
#
# Revision: 2
# Processed by: cddbd v1.5.2PL0 Copyright (c) Steve Scherf et al.
# Submitted via: CDex 1.51
#
DISCID=c10b7a0d
DTITLE=Steve Howell - My Mind Gets To Ramblin'
DYEAR=2008
DGENRE=Blues
TTITLE0=I Can't Be Satisfied
TTITLE1=Louise
TTITLE2=All My Friends Are Gone
TTITLE3=Mississippi Blues
TTITLE4=Policy Blues
TTITLE5=Steady Rollin' Man
TTITLE6=Ain't Nothin' In Ramblin'
TTITLE7=Prodigal Son
TTITLE8=Dirty Deal Blues
TTITLE9=Windy and Warm
TTITLE10=Ain't You Sorry
TTITLE11=Joshua Fit The Battle Of Jericho
TTITLE12=Rowdy Blues
EXTD=YEAR: 2008
EXTT0=
EXTT1=
EXTT2=
EXTT3=
EXTT4=
EXTT5=
EXTT6=
EXTT7=
EXTT8=
EXTT9=
EXTT10=
EXTT11=
EXTT12=
PLAYORDER=
